<?xml version="1.0" encoding="UTF-8" standalone="no"?><!-- Generator: Gravit.io --><svg xmlns="http://www.w3.org/2000/svg" xmlns:xlink="http://www.w3.org/1999/xlink" style="isolation:isolate" viewBox="0 0 64 64" width="64pt" height="64pt"><defs><clipPath id="_clipPath_dr0DWsgXbcxmStU71PTp15YeHmmMxTTs"><rect width="64" height="64"/></clipPath></defs><g clip-path="url(#_clipPath_dr0DWsgXbcxmStU71PTp15YeHmmMxTTs)"><path d=" M 58.286 26.286 L 38.857 26.286 C 38.226 26.286 37.714 25.774 37.714 25.143 L 37.714 5.714 C 37.714 2.559 35.156 0 32 0 C 28.844 0 26.286 2.559 26.286 5.714 L 26.286 25.143 C 26.286 25.774 25.774 26.286 25.143 26.286 L 5.714 26.286 C 2.559 26.286 0 28.844 0 32 C 0 35.156 2.559 37.714 5.714 37.714 L 25.143 37.714 C 25.774 37.714 26.286 38.226 26.286 38.857 L 26.286 58.286 C 26.286 61.441 28.844 64 32 64 C 35.156 64 37.714 61.441 37.714 58.286 L 37.714 38.857 C 37.714 38.226 38.226 37.714 38.857 37.714 L 58.286 37.714 C 61.441 37.714 64 35.156 64 32 C 64 28.844 61.441 26.286 58.286 26.286 Z " fill="rgb(213,213,213)"/></g></svg>