<svg xmlns="http://www.w3.org/2000/svg" width="32.276" height="35.594" viewBox="0 0 32.276 35.594">
  <path id="Icon_simple-email" data-name="Icon simple-email" d="M33.924,16.428a18.356,18.356,0,0,1-.592,3.981,11.521,11.521,0,0,1-1.548,3.5A8.169,8.169,0,0,1,29.16,26.39a7.407,7.407,0,0,1-3.832.945,5.555,5.555,0,0,1-2.771-.678,4.746,4.746,0,0,1-1.873-1.919,5.936,5.936,0,0,1-5.022,2.522A5.107,5.107,0,0,1,11.278,24.9a7.718,7.718,0,0,1-1.09-2.731,11.779,11.779,0,0,1-.142-3.563,16.552,16.552,0,0,1,1.085-4.364A11.861,11.861,0,0,1,13.137,10.9,8.487,8.487,0,0,1,15.9,8.77a7.7,7.7,0,0,1,3.354-.745,10.429,10.429,0,0,1,2.006.171,8.212,8.212,0,0,1,1.557.467,8.419,8.419,0,0,1,1.29.681c.394.254.79.516,1.183.783l-.974,11.21a3.726,3.726,0,0,0,.029,1.312,1.836,1.836,0,0,0,.4.81,1.441,1.441,0,0,0,.649.423,2.411,2.411,0,0,0,2.282-.449A4.864,4.864,0,0,0,28.9,21.875a10.028,10.028,0,0,0,.823-2.34,16.055,16.055,0,0,0,.36-2.914,18.621,18.621,0,0,0-.458-5.445,10.823,10.823,0,0,0-2.015-4.213A9.357,9.357,0,0,0,23.994,4.25a13.11,13.11,0,0,0-5.262-.963,11.619,11.619,0,0,0-5.2,1.134A11.942,11.942,0,0,0,9.572,7.567,15.093,15.093,0,0,0,6.983,12.3a21.319,21.319,0,0,0-1.09,5.894,19.6,19.6,0,0,0,.556,6.014,10.862,10.862,0,0,0,2.2,4.31,9.17,9.17,0,0,0,3.723,2.589,14.282,14.282,0,0,0,5.138.859A17.6,17.6,0,0,0,20.88,31.6c.556-.111,1.083-.245,1.586-.391a11.935,11.935,0,0,0,1.366-.489l.705,3.172a7.827,7.827,0,0,1-1.528.756,14.709,14.709,0,0,1-1.806.523,17.622,17.622,0,0,1-3.772.423,19.782,19.782,0,0,1-6.877-1.108,12.657,12.657,0,0,1-5.013-3.3A13.844,13.844,0,0,1,2.53,25.747a23.216,23.216,0,0,1-.841-7.556,23.043,23.043,0,0,1,1.446-7.251A17.945,17.945,0,0,1,6.618,5.18a15.872,15.872,0,0,1,5.314-3.8A16.636,16.636,0,0,1,18.813,0a17.368,17.368,0,0,1,6.668,1.194,12.969,12.969,0,0,1,4.813,3.359A13.783,13.783,0,0,1,33.15,9.742,19.841,19.841,0,0,1,33.924,16.428Zm-19.1,2.18a7.566,7.566,0,0,0,.391,3.752,2.012,2.012,0,0,0,1.935,1.268,2.137,2.137,0,0,0,.663-.122,2.364,2.364,0,0,0,.763-.458,4.072,4.072,0,0,0,.774-.934,7.169,7.169,0,0,0,.712-1.579l.761-8.71a4.545,4.545,0,0,0-1.183-.156,4.091,4.091,0,0,0-1.968.452,3.9,3.9,0,0,0-1.395,1.326,7.785,7.785,0,0,0-.925,2.18,18.49,18.49,0,0,0-.525,2.98Z" transform="translate(-1.67)" fill="#fff"/>
</svg>
