<?xml version="1.0" encoding="UTF-8" standalone="no"?><!-- Generator: Gravit.io --><svg xmlns="http://www.w3.org/2000/svg" xmlns:xlink="http://www.w3.org/1999/xlink" style="isolation:isolate" viewBox="0 0 64 64" width="64pt" height="64pt"><defs><clipPath id="_clipPath_PvzrV2ezBtsjLM7lv22andncAWmj0xGN"><rect width="64" height="64"/></clipPath></defs><g clip-path="url(#_clipPath_PvzrV2ezBtsjLM7lv22andncAWmj0xGN)"><g><path d=" M 44.426 20.928 L 44.426 55.031 C 44.426 56.619 43.118 57.927 41.53 57.927 L 19.06 57.927 C 17.472 57.927 16.164 56.619 16.164 55.031 L 16.164 20.928 L 44.426 20.928 L 44.426 20.928 Z  M 37.092 24.712 L 37.092 54.05 L 38.774 54.05 L 38.774 24.712 L 37.092 24.712 L 37.092 24.712 Z  M 29.477 24.712 L 29.477 54.05 L 31.159 54.05 L 31.159 24.712 L 29.477 24.712 L 29.477 24.712 Z  M 21.863 24.712 L 21.863 54.05 L 23.545 54.05 L 23.545 24.712 L 21.863 24.712 L 21.863 24.712 Z  M 23.731 13.034 L 23.731 10.604 C 23.731 9.063 24.946 7.848 26.488 7.848 L 34.149 7.848 C 35.691 7.848 36.905 9.063 36.905 10.604 L 36.905 13.034 L 45.361 13.034 C 46.949 13.034 48.257 14.342 48.257 15.93 L 48.257 17.939 L 12.38 17.939 L 12.38 15.883 C 12.38 14.295 13.688 12.987 15.276 12.987 L 23.731 12.987 L 23.731 13.034 Z  M 26.488 9.717 C 26.02 9.717 25.647 10.091 25.647 10.558 L 25.647 12.987 L 35.036 12.987 L 35.036 10.558 C 35.036 10.091 34.663 9.717 34.196 9.717 L 26.488 9.717 L 26.488 9.717 Z " fill="rgb(213,213,213)"/><rect x="9.109" y="0" width="45.781" height="64" transform="matrix(1,0,0,1,0,0)" fill="none"/></g></g></svg>