<svg xmlns="http://www.w3.org/2000/svg" width="22.117" height="12.969" viewBox="0 0 22.117 12.969">
  <path id="Icon_awesome-eye" data-name="Icon awesome-eye" d="M21.983,10.491A12.569,12.569,0,0,0,11.059,4.5,12.571,12.571,0,0,0,.134,10.492a.976.976,0,0,0,0,.986,12.569,12.569,0,0,0,10.925,5.991,12.571,12.571,0,0,0,10.925-5.992A.976.976,0,0,0,21.983,10.491ZM11.059,15.848c-3.054,0-5.529-2.177-5.529-4.863S8,6.121,11.059,6.121s5.529,2.177,5.529,4.863S14.113,15.849,11.059,15.848Zm0-8.105a4.126,4.126,0,0,0-.972.128,1.474,1.474,0,0,1-.181,2.1,2.028,2.028,0,0,1-2.388.159,3.055,3.055,0,0,0,1.5,3.534,4.091,4.091,0,0,0,4.286-.119,3.013,3.013,0,0,0,1.244-3.61,3.675,3.675,0,0,0-3.49-2.192Z" transform="translate(0 -4.5)" fill="#d5d5d5"/>
</svg>
