<?xml version="1.0" encoding="UTF-8" standalone="no"?><!-- Generator: Gravit.io --><svg xmlns="http://www.w3.org/2000/svg" xmlns:xlink="http://www.w3.org/1999/xlink" style="isolation:isolate" viewBox="0 0 64 40" width="64pt" height="40pt"><defs><clipPath id="_clipPath_RQgMGW64nHuORMigT5L3xKgTJXY1Ezar"><rect width="64" height="40"/></clipPath></defs><g clip-path="url(#_clipPath_RQgMGW64nHuORMigT5L3xKgTJXY1Ezar)"><path d=" M 62.624 18.555 C 56.104 7.467 44.46 0.799 32.001 1.019 C 19.54 0.8 7.895 7.469 1.375 18.558 C 0.875 19.45 0.875 20.553 1.375 21.445 C 7.895 32.534 19.54 39.202 32.001 38.981 C 44.461 39.2 56.106 32.531 62.627 21.442 C 63.125 20.55 63.124 19.446 62.624 18.555 Z  M 32.001 34.236 C 23.439 34.236 16.501 27.864 16.501 20.001 C 16.501 12.139 23.425 5.764 32.001 5.764 C 40.576 5.764 47.5 12.136 47.5 19.999 C 47.5 27.861 40.562 34.239 32.001 34.236 Z  M 32.001 10.512 C 31.081 10.523 30.167 10.649 29.276 10.886 C 30.001 11.766 30.356 12.915 30.261 14.071 C 30.165 15.228 29.627 16.296 28.769 17.033 C 26.872 18.693 24.165 18.882 22.074 17.499 C 20.967 21.551 22.718 25.86 26.279 27.843 C 30.026 30.103 34.673 29.969 38.294 27.495 C 41.718 25.289 43.178 20.868 41.781 16.928 C 40.084 12.901 36.209 10.36 31.998 10.512 L 32.001 10.512 Z " fill="rgb(140,140,140)"/></g></svg>