<svg xmlns="http://www.w3.org/2000/svg" width="31.573" height="31.574" viewBox="0 0 31.573 31.574">
  <path id="Icon_metro-facebook" data-name="Icon metro-facebook" d="M28.882,1.928H7.832A5.262,5.262,0,0,0,2.571,7.191V28.239A5.262,5.262,0,0,0,7.832,33.5H18.357V19.688H14.411V15.741h3.947v-2.96a4.933,4.933,0,0,1,4.933-4.933h4.933v3.947H23.291a.987.987,0,0,0-.987.987v2.96h5.427l-.987,3.947H22.3V33.5h6.578a5.262,5.262,0,0,0,5.262-5.263V7.191a5.262,5.262,0,0,0-5.262-5.263Z" transform="translate(-2.571 -1.928)" fill="#fff"/>
</svg>
