<svg xmlns="http://www.w3.org/2000/svg" width="32.035" height="32.035" viewBox="0 0 32.035 32.035">
  <path id="Icon_simple-instagram" data-name="Icon simple-instagram" d="M16.017,0c-4.351,0-4.895.02-6.6.1A11.811,11.811,0,0,0,5.526.841,7.844,7.844,0,0,0,2.688,2.688,7.815,7.815,0,0,0,.841,5.526,11.776,11.776,0,0,0,.1,9.414c-.08,1.709-.1,2.252-.1,6.6s.02,4.895.1,6.6a11.818,11.818,0,0,0,.745,3.888,7.855,7.855,0,0,0,1.847,2.838,7.833,7.833,0,0,0,2.838,1.847,11.826,11.826,0,0,0,3.888.745c1.709.08,2.252.1,6.6.1s4.895-.02,6.6-.1a11.853,11.853,0,0,0,3.888-.745,8.186,8.186,0,0,0,4.685-4.685,11.818,11.818,0,0,0,.745-3.888c.08-1.709.1-2.252.1-6.6s-.02-4.895-.1-6.6a11.846,11.846,0,0,0-.745-3.888,7.861,7.861,0,0,0-1.847-2.838A7.8,7.8,0,0,0,26.509.841,11.783,11.783,0,0,0,22.62.1C20.912.016,20.369,0,16.017,0Zm0,2.883c4.275,0,4.785.021,6.474.095a8.825,8.825,0,0,1,2.973.554A5.271,5.271,0,0,1,28.5,6.571a8.843,8.843,0,0,1,.551,2.973c.076,1.69.093,2.2.093,6.474s-.02,4.785-.1,6.474a9.014,9.014,0,0,1-.562,2.973,5.086,5.086,0,0,1-1.2,1.845,5,5,0,0,1-1.842,1.2,8.908,8.908,0,0,1-2.983.551c-1.7.076-2.2.093-6.486.093s-4.786-.02-6.486-.1a9.082,9.082,0,0,1-2.985-.562,4.96,4.96,0,0,1-1.841-1.2,4.864,4.864,0,0,1-1.2-1.842A9.09,9.09,0,0,1,2.9,22.463c-.06-1.682-.081-2.2-.081-6.466s.021-4.787.081-6.488a9.08,9.08,0,0,1,.561-2.982,4.748,4.748,0,0,1,1.2-1.843,4.738,4.738,0,0,1,1.841-1.2,8.865,8.865,0,0,1,2.965-.562c1.7-.06,2.2-.08,6.486-.08l.06.04Zm0,4.909a8.225,8.225,0,1,0,8.225,8.225A8.224,8.224,0,0,0,16.017,7.792Zm0,13.564a5.339,5.339,0,1,1,5.339-5.339A5.338,5.338,0,0,1,16.017,21.357ZM26.49,7.468a1.922,1.922,0,1,1-1.922-1.921A1.923,1.923,0,0,1,26.49,7.468Z" fill="#fff"/>
</svg>
