<?xml version="1.0" encoding="UTF-8" standalone="no"?><!-- Generator: Gravit.io --><svg xmlns="http://www.w3.org/2000/svg" xmlns:xlink="http://www.w3.org/1999/xlink" style="isolation:isolate" viewBox="0 0 250 264" width="250pt" height="264pt"><defs><clipPath id="_clipPath_3OrykFycMYRaPMWicFsriiscw4flkkw3"><rect width="250" height="264"/></clipPath></defs><g clip-path="url(#_clipPath_3OrykFycMYRaPMWicFsriiscw4flkkw3)"><g><path d=" M 126.824 0.744 C 113.851 7.532 107.854 12.182 104.831 17.901 C 103.762 19.9 103.576 20.783 103.576 24.41 C 103.576 28.966 103.623 29.059 108.412 38.079 C 114.084 48.68 110.504 55.05 97.485 57.421 C 91.301 58.584 88.698 59.374 83.816 61.745 C 76.33 65.372 70.518 72.114 68.937 79.042 C 67.124 86.667 69.17 95.036 74.982 104.149 L 77.399 107.869 L 124.313 107.869 L 171.18 107.869 L 174.249 105.032 C 181.13 98.57 183.501 88.573 180.293 79.553 C 179.084 76.112 176.434 71.463 173.923 68.394 L 171.459 65.419 L 171.18 69.836 C 170.994 73.369 170.668 74.764 169.692 76.763 C 168.344 79.507 167.181 81.18 166.856 80.855 C 166.763 80.762 166.902 79.181 167.135 77.414 C 167.693 73.462 166.949 65.884 165.647 62.071 C 164.206 57.886 161.974 54.12 159.091 51.005 C 157.65 49.424 156.348 48.215 156.209 48.355 C 156.069 48.494 155.697 50.494 155.418 52.772 C 154.395 60.909 151.791 66.581 146.352 72.486 C 143.608 75.415 135.425 82.622 135.425 82.064 C 135.425 81.924 135.983 80.808 136.634 79.6 C 144.306 65.884 147.328 59.421 149.699 51.842 C 150.769 48.262 150.955 46.821 151.001 42.078 C 151.001 37.336 150.862 36.173 149.978 34.313 C 147.049 27.944 141.842 24.596 131.473 22.504 C 126.87 21.574 124.499 20.411 123.336 18.459 C 121.523 15.483 122.593 11.019 126.591 5.114 C 127.707 3.441 128.73 1.999 128.869 1.86 C 129.009 1.72 129.427 1.255 129.799 0.79 C 130.357 0.093 130.311 0 129.334 0 C 128.73 0.046 127.614 0.372 126.824 0.744 Z  M 133.007 29.059 C 138.029 30.826 140.679 33.012 142.492 36.964 C 143.422 38.916 143.562 40.032 143.515 44.17 C 143.515 48.448 143.329 49.61 141.981 53.423 C 141.144 55.841 139.842 59.188 139.052 60.862 C 137.053 65.186 132.124 74.02 131.845 73.741 C 131.752 73.648 131.985 72.858 132.403 72.067 C 132.821 71.23 133.891 68.72 134.774 66.441 C 141.191 49.75 140.447 38.916 132.264 30.547 C 129.939 28.176 129.985 28.037 133.007 29.059 Z  M 111.666 59.7 C 109.62 61.606 107.156 63.094 100.786 66.209 C 96.276 68.394 91.673 70.859 90.557 71.602 C 85.629 74.997 81.351 80.994 80.05 86.248 C 79.12 90.061 78.608 89.875 78.98 85.783 C 79.678 77.275 82.979 71.835 89.814 67.697 C 91.255 66.86 95.579 64.954 99.392 63.466 C 106.366 60.816 112.968 57.793 113.433 57.049 C 113.573 56.863 113.805 56.817 113.991 56.956 C 114.13 57.142 113.108 58.398 111.666 59.7 Z  M 160.207 72.393 C 159.231 73.881 156.813 78.623 154.814 82.994 C 152.814 87.318 150.211 92.2 149.048 93.827 C 146.584 97.314 142.818 100.383 139.703 101.499 C 136.96 102.522 131.845 103.08 128.683 102.754 L 126.359 102.522 L 128.823 102.15 C 132.078 101.685 136.03 100.197 138.959 98.337 C 143.701 95.315 146.817 91.223 153.326 79.6 C 155.744 75.229 160.3 69.743 161.509 69.743 C 161.741 69.743 161.137 70.952 160.207 72.393 Z " fill="rgb(255,255,255)"/><path d=" M 84.141 112.704 C 76.283 114.843 76.283 125.676 84.188 127.861 C 86.559 128.512 163.369 128.512 165.786 127.815 C 173.272 125.723 173.644 115.447 166.298 112.89 C 164.206 112.146 160.626 112.1 125.196 112.1 C 95.067 112.1 85.861 112.239 84.141 112.704 Z " fill="rgb(255,255,255)"/><path d=" M 77.771 131.953 C 77.446 132.093 77.306 150.691 77.306 186.724 L 77.306 241.31 L 124.266 241.31 L 171.226 241.31 L 171.226 186.678 C 171.226 143.298 171.087 132.046 170.668 132.046 C 163.09 131.907 78.097 131.86 77.771 131.953 Z  M 91.022 142.6 C 94.974 143.577 98.369 143.112 102.228 141.113 L 105.203 139.532 L 105.203 180.819 C 105.203 226.989 105.343 225.036 101.949 228.895 C 97.113 234.382 89.163 233.173 85.582 226.431 L 84.513 224.339 L 84.374 181.889 L 84.281 139.485 L 86.187 140.648 C 87.21 141.345 89.395 142.182 91.022 142.6 Z  M 132.635 180.773 C 132.635 227.826 132.821 225.362 128.916 229.267 C 123.569 234.614 116.781 232.987 113.154 225.501 L 111.945 222.944 L 111.806 181.191 L 111.666 139.485 L 122.174 139.485 L 132.635 139.485 L 132.635 180.773 Z  M 155.046 140.043 C 157.975 140.927 160.765 143.902 161.695 147.11 C 163.834 154.41 158.952 160.873 151.373 160.873 C 146.398 160.873 142.585 157.99 141.191 153.108 C 138.773 144.786 146.491 137.486 155.046 140.043 Z  M 157.789 163.895 C 158.812 164.546 160.114 165.848 160.765 166.824 L 161.927 168.638 L 161.834 197.976 C 161.695 226.896 161.695 227.314 160.719 228.616 C 160.207 229.314 158.859 230.523 157.789 231.313 C 155.93 232.615 155.558 232.708 151.466 232.708 C 147.374 232.708 147.002 232.615 145.143 231.313 C 144.073 230.523 142.725 229.314 142.213 228.616 C 141.237 227.314 141.237 226.896 141.098 198.859 C 141.005 183.191 141.098 169.707 141.237 168.87 C 142.306 163.058 152.117 160.129 157.789 163.895 Z " fill="rgb(255,255,255)"/><path d=" M 84.281 253.631 C 84.281 260.047 84.699 261.488 86.884 262.93 C 88.791 264.185 93.812 264.371 95.904 263.302 C 98.555 261.907 99.066 260.465 99.206 253.863 L 99.345 248.051 L 96.927 247.912 L 94.51 247.772 L 94.51 253.026 C 94.51 259.024 93.998 260.372 91.72 260.372 C 89.442 260.372 88.93 259.024 88.93 253.073 L 88.93 247.819 L 86.605 247.819 L 84.281 247.819 L 84.281 253.631 Z " fill="rgb(255,255,255)"/><path d=" M 102.879 255.723 L 102.879 263.627 L 105.203 263.627 L 107.528 263.627 L 107.528 260.372 L 107.528 257.118 L 110.69 257.118 L 113.851 257.118 L 113.805 255.351 L 113.805 253.631 L 110.643 253.491 C 107.9 253.352 107.528 253.259 107.528 252.468 C 107.528 251.631 107.854 251.538 111.248 251.538 L 114.967 251.538 L 114.967 249.679 L 114.967 247.819 L 108.923 247.819 L 102.879 247.819 L 102.879 255.723 Z " fill="rgb(255,255,255)"/><path d=" M 121.756 248.237 C 121.616 248.47 120.686 250.934 119.663 253.677 C 118.687 256.467 117.432 259.861 116.874 261.163 L 115.897 263.627 L 118.454 263.627 C 120.965 263.627 121.058 263.581 121.337 262.232 C 121.57 260.837 121.663 260.837 124.499 260.837 C 127.382 260.837 127.475 260.884 127.754 262.232 C 128.032 263.581 128.172 263.627 130.59 263.627 C 131.985 263.627 133.1 263.534 133.1 263.395 C 133.1 263.302 131.845 259.722 130.264 255.491 L 127.428 247.819 L 124.731 247.819 C 123.197 247.819 121.895 248.005 121.756 248.237 Z  M 125.661 254.933 C 126.312 257.025 126.219 257.211 124.359 257.025 L 123.011 256.885 L 123.662 254.607 C 124.406 252.143 124.778 252.236 125.661 254.933 Z " fill="rgb(255,255,255)"/><path d=" M 134.728 255.723 L 134.728 263.627 L 137.192 263.627 L 139.61 263.627 L 139.61 261.07 L 139.61 258.513 L 141.935 258.513 C 144.817 258.513 146.817 257.536 147.746 255.723 C 149.141 253.026 148.211 249.4 145.794 248.33 C 145.189 248.051 142.446 247.819 139.703 247.819 L 134.728 247.819 L 134.728 255.723 Z  M 143.376 252.282 C 144.306 253.398 143.329 254.514 141.284 254.7 C 139.656 254.84 139.61 254.793 139.61 253.212 C 139.61 251.631 139.703 251.538 141.191 251.538 C 142.028 251.538 143.004 251.864 143.376 252.282 Z " fill="rgb(255,255,255)"/><path d=" M 151.234 255.723 L 151.234 263.627 L 157.975 263.627 L 164.717 263.627 L 164.717 261.767 L 164.717 259.908 L 160.3 259.908 L 155.883 259.908 L 155.883 258.513 L 155.883 257.118 L 159.835 257.118 L 163.787 257.118 L 163.787 255.258 L 163.787 253.398 L 159.835 253.398 C 156.209 253.398 155.883 253.305 155.883 252.468 C 155.883 251.585 156.209 251.538 160.068 251.538 L 164.252 251.538 L 164.252 249.679 L 164.252 247.819 L 157.743 247.819 L 151.234 247.819 L 151.234 255.723 Z " fill="rgb(255,255,255)"/></g></g></svg>