<?xml version="1.0" encoding="UTF-8" standalone="no"?><!-- Generator: Gravit.io --><svg xmlns="http://www.w3.org/2000/svg" xmlns:xlink="http://www.w3.org/1999/xlink" style="isolation:isolate" viewBox="0 0 32 64" width="32pt" height="64pt"><defs><clipPath id="_clipPath_gi5hzYC4vH4l5CPFZSLWsV74faO3sHxI"><rect width="32" height="64"/></clipPath></defs><g clip-path="url(#_clipPath_gi5hzYC4vH4l5CPFZSLWsV74faO3sHxI)"><g><path d=" M 20.95 5.123 C 23.683 7.955 23.683 12.545 20.95 15.377 C 18.216 18.208 13.784 18.208 11.05 15.377 C 8.317 12.545 8.317 7.955 11.05 5.123 C 13.784 2.292 18.216 2.292 20.95 5.123 Z " fill="rgb(213,213,213)"/><path d=" M 20.95 26.874 C 23.683 29.705 23.683 34.295 20.95 37.127 C 18.216 39.958 13.784 39.958 11.05 37.127 C 8.317 34.295 8.317 29.705 11.05 26.874 C 13.784 24.042 18.216 24.042 20.95 26.874" fill="rgb(213,213,213)"/><path d=" M 20.95 48.623 C 23.683 51.455 23.683 56.045 20.95 58.877 C 18.216 61.708 13.784 61.708 11.05 58.877 C 8.317 56.045 8.317 51.455 11.05 48.623 C 13.784 45.792 18.216 45.792 20.95 48.623" fill="rgb(213,213,213)"/></g></g></svg>