<svg xmlns="http://www.w3.org/2000/svg" width="13.809" height="15.135" viewBox="0 0 13.809 15.135">
  <path id="Icon_awesome-share-alt" data-name="Icon awesome-share-alt" d="M10.85,9.459a3.026,3.026,0,0,0-1.843.618L5.848,8.183a2.74,2.74,0,0,0,0-1.232L9.007,5.058a3.026,3.026,0,0,0,1.843.618,2.9,2.9,0,0,0,2.959-2.838A2.9,2.9,0,0,0,10.85,0,2.9,2.9,0,0,0,7.891,2.838a2.735,2.735,0,0,0,.07.616L4.8,5.347A3.026,3.026,0,0,0,2.959,4.73,2.9,2.9,0,0,0,0,7.567,2.9,2.9,0,0,0,2.959,10.4,3.026,3.026,0,0,0,4.8,9.787l3.159,1.893a2.735,2.735,0,0,0-.07.616,2.9,2.9,0,0,0,2.959,2.838A2.9,2.9,0,0,0,13.809,12.3,2.9,2.9,0,0,0,10.85,9.459Z" fill="#d5d5d5"/>
</svg>
