<?xml version="1.0" encoding="UTF-8" standalone="no"?><!-- Generator: Gravit.io --><svg xmlns="http://www.w3.org/2000/svg" xmlns:xlink="http://www.w3.org/1999/xlink" style="isolation:isolate" viewBox="0 0 64 64" width="64pt" height="64pt"><defs><clipPath id="_clipPath_OX66e79VTE0kzMuvhykK28AJC1pLzdUi"><rect width="64" height="64"/></clipPath></defs><g clip-path="url(#_clipPath_OX66e79VTE0kzMuvhykK28AJC1pLzdUi)"><g><g><path d=" M 63.322 22.393 L 45.036 4.107 C 44.583 3.655 44.048 3.429 43.429 3.429 C 42.81 3.429 42.274 3.655 41.822 4.107 C 41.369 4.56 41.143 5.096 41.143 5.715 L 41.143 14.858 L 33.143 14.858 C 16.166 14.858 5.75 19.655 1.892 29.25 C 0.631 32.441 0 36.405 0 41.143 C 0 45.096 1.512 50.464 4.536 57.25 C 4.607 57.417 4.732 57.702 4.91 58.107 C 5.089 58.512 5.25 58.869 5.393 59.179 C 5.536 59.488 5.691 59.75 5.857 59.964 C 6.143 60.369 6.476 60.571 6.857 60.571 C 7.214 60.571 7.494 60.452 7.697 60.214 C 7.899 59.977 8 59.679 8 59.322 C 8 59.107 7.97 58.792 7.911 58.375 C 7.851 57.959 7.821 57.679 7.821 57.536 C 7.702 55.918 7.642 54.452 7.642 53.144 C 7.642 50.739 7.851 48.584 8.267 46.68 C 8.684 44.775 9.261 43.126 10 41.733 C 10.738 40.34 11.69 39.138 12.857 38.126 C 14.023 37.114 15.279 36.287 16.624 35.644 C 17.97 35.001 19.553 34.495 21.375 34.126 C 23.196 33.757 25.029 33.501 26.875 33.358 C 28.72 33.215 30.809 33.144 33.143 33.144 L 41.143 33.144 L 41.143 42.287 C 41.143 42.906 41.369 43.442 41.821 43.894 C 42.274 44.346 42.809 44.573 43.428 44.573 C 44.047 44.573 44.583 44.346 45.036 43.894 L 63.322 25.608 C 63.774 25.156 64 24.62 64 24.001 C 64 23.382 63.774 22.846 63.322 22.393 Z " fill="rgb(140,140,140)"/></g></g></g></svg>