<?xml version="1.0" encoding="UTF-8" standalone="no"?><!-- Generator: Gravit.io --><svg xmlns="http://www.w3.org/2000/svg" xmlns:xlink="http://www.w3.org/1999/xlink" style="isolation:isolate" viewBox="0 0 64 64" width="64pt" height="64pt"><defs><clipPath id="_clipPath_x95f9XxtRknRbt9JRN3taUdWabIy5z34"><rect width="64" height="64"/></clipPath></defs><g clip-path="url(#_clipPath_x95f9XxtRknRbt9JRN3taUdWabIy5z34)"><g><path d=" M 57.417 14.319 C 57.417 27.028 64 35.755 64 41.879 C 64 48.003 60.48 60.865 32.308 60.865 C 4.136 60.865 0 43.562 0 36.827 C 0 5.285 57.417 -8.188 57.417 14.319 Z " fill="rgb(213,213,213)"/><g><path d=" M 11.734 46.106 L 13.033 44.807 L 15.631 47.405 L 14.332 48.704 L 11.734 46.106 Z " fill="rgb(62,62,62)"/><path d=" M 4.264 38.636 L 5.563 37.337 L 8.161 39.935 L 6.862 41.234 L 4.264 38.636 Z " fill="rgb(62,62,62)"/><path d=" M 4.589 47.404 L 7.187 44.806 L 8.486 46.105 L 5.888 48.703 L 4.589 47.404 Z " fill="rgb(70,70,70)"/></g><circle vector-effect="non-scaling-stroke" cx="20.058220652829213" cy="20.05726464059147" r="8.72735624264347" fill="rgb(243,243,241)"/><circle vector-effect="non-scaling-stroke" cx="26.488904200040192" cy="37.5119771258784" r="2.296672695432491" fill="rgb(47,223,132)"/><circle vector-effect="non-scaling-stroke" cx="26.488904200040192" cy="50.37334422030035" r="2.296672695432491" fill="rgb(47,223,132)"/><path d=" M 28.326 37.512 C 28.326 37.163 28.416 36.841 28.556 36.546 C 28.188 35.765 27.408 35.215 26.489 35.215 C 25.221 35.215 24.192 36.244 24.192 37.512 C 24.192 38.78 25.221 39.809 26.489 39.809 C 27.408 39.809 28.188 39.259 28.556 38.478 C 28.416 38.183 28.326 37.861 28.326 37.512 Z " fill="rgb(0,184,113)"/><path d=" M 28.326 50.373 C 28.326 50.024 28.416 49.703 28.556 49.407 C 28.188 48.626 27.408 48.077 26.489 48.077 C 25.221 48.077 24.192 49.106 24.192 50.373 C 24.192 51.641 25.221 52.67 26.489 52.67 C 27.408 52.67 28.188 52.121 28.556 51.34 C 28.416 51.044 28.326 50.722 28.326 50.373 Z " fill="rgb(0,184,113)"/><path d=" M 15.465 20.057 C 15.465 15.953 18.307 12.535 22.125 11.604 C 21.46 11.44 20.775 11.33 20.058 11.33 C 15.239 11.33 11.331 15.238 11.331 20.057 C 11.331 24.877 15.239 28.785 20.058 28.785 C 20.775 28.785 21.46 28.674 22.125 28.511 C 18.307 27.579 15.465 24.162 15.465 20.057 Z " fill="rgb(213,219,225)"/><path d=" M 20.058 30.163 C 14.486 30.163 9.953 25.63 9.953 20.057 C 9.953 14.485 14.486 9.952 20.058 9.952 C 25.631 9.952 30.164 14.485 30.164 20.057 C 30.164 25.63 25.631 30.163 20.058 30.163 Z  M 20.058 12.708 C 16.005 12.708 12.709 16.004 12.709 20.057 C 12.709 24.11 16.005 27.407 20.058 27.407 C 24.111 27.407 27.408 24.11 27.408 20.057 C 27.408 16.004 24.111 12.708 20.058 12.708 Z " fill="rgb(77,77,77)"/><path d=" M 26.489 41.187 C 24.462 41.187 22.814 39.539 22.814 37.512 C 22.814 35.485 24.462 33.837 26.489 33.837 C 28.515 33.837 30.164 35.485 30.164 37.512 C 30.164 39.539 28.515 41.187 26.489 41.187 Z  M 26.489 36.593 C 25.982 36.593 25.57 37.005 25.57 37.512 C 25.57 38.019 25.982 38.431 26.489 38.431 C 26.996 38.431 27.408 38.019 27.408 37.512 C 27.408 37.005 26.996 36.593 26.489 36.593 Z " fill="rgb(77,77,77)"/><path d=" M 26.489 54.048 C 24.462 54.048 22.814 52.4 22.814 50.373 C 22.814 48.347 24.462 46.699 26.489 46.699 C 28.515 46.699 30.164 48.347 30.164 50.373 C 30.164 52.4 28.515 54.048 26.489 54.048 Z  M 26.489 49.455 C 25.982 49.455 25.57 49.866 25.57 50.373 C 25.57 50.88 25.982 51.292 26.489 51.292 C 26.996 51.292 27.408 50.88 27.408 50.373 C 27.408 49.866 26.996 49.455 26.489 49.455 Z " fill="rgb(77,77,77)"/><circle vector-effect="non-scaling-stroke" cx="26.488904200040196" cy="37.511977125878396" r="0.9186690781729965" fill="rgb(213,213,213)"/><circle vector-effect="non-scaling-stroke" cx="26.488904200040196" cy="50.37334422030035" r="0.9186690781729965" fill="rgb(213,213,213)"/><path d=" M 35.676 15.464 L 54.049 15.464 L 54.049 18.22 L 35.676 18.22 L 35.676 15.464 Z " fill="rgb(77,77,77)"/><path d=" M 35.676 22.813 L 54.049 22.813 L 54.049 25.569 L 35.676 25.569 L 35.676 22.813 Z " fill="rgb(77,77,77)"/><path d=" M 35.676 35.675 L 54.049 35.675 L 54.049 38.431 L 35.676 38.431 L 35.676 35.675 Z " fill="rgb(77,77,77)"/><path d=" M 35.676 43.024 L 54.049 43.024 L 54.049 45.78 L 35.676 45.78 L 35.676 43.024 Z " fill="rgb(77,77,77)"/><path d=" M 35.676 50.373 L 54.049 50.373 L 54.049 53.129 L 35.676 53.129 L 35.676 50.373 Z " fill="rgb(77,77,77)"/></g></g></svg>